<svg width="20" height="20" viewBox="0 0 20 20" fill="none" xmlns="http://www.w3.org/2000/svg">
<path d="M4.44444 1.11111C4.44444 0.497461 4.94191 0 5.55556 0C6.16921 0 6.66667 0.497461 6.66667 1.11111V2.22222H13.3333V1.11111C13.3333 0.497461 13.8308 0 14.4444 0C15.0581 0 15.5556 0.497461 15.5556 1.11111V2.22222H17.7778C19.0051 2.22222 20 3.21715 20 4.44444V7.77778H0V4.44444C0 3.21715 0.994923 2.22222 2.22222 2.22222H4.44444V1.11111Z" fill="#FFA6A6"/>
<path d="M0 10H20V17.7778C20 19.0051 19.0051 20 17.7778 20H2.22222C0.994923 20 0 19.0051 0 17.7778V10Z" fill="#D9D9D9"/>
</svg>
