<svg width="20" height="22" viewBox="0 0 20 22" fill="none" xmlns="http://www.w3.org/2000/svg">
<path fill-rule="evenodd" clip-rule="evenodd" d="M11.3488 1.08661C10.6039 0.304463 9.39614 0.304464 8.65124 1.08661L6.83966 2.98877L4.27767 2.98877C3.22423 2.98877 2.37024 3.88546 2.37024 4.99158V7.68166L0.558675 9.5838C-0.186224 10.3659 -0.186226 11.6341 0.558675 12.4162L2.37024 14.3183V17.0084C2.37024 18.1145 3.22423 19.0112 4.27767 19.0112H6.83966L8.65124 20.9134C9.39614 21.6955 10.6039 21.6955 11.3488 20.9134L13.1603 19.0112H15.7223C16.7757 19.0112 17.6297 18.1145 17.6297 17.0084L17.6297 14.3184L19.4413 12.4162C20.1862 11.6341 20.1862 10.3659 19.4413 9.5838L17.6297 7.68162V4.99158C17.6297 3.88546 16.7757 2.98877 15.7223 2.98877H13.1603L11.3488 1.08661ZM10 14.0042C11.5802 14.0042 12.8612 12.6591 12.8612 11C12.8612 9.34077 11.5802 7.99574 10 7.99574C8.41984 7.99574 7.13886 9.34077 7.13886 11C7.13886 12.6591 8.41984 14.0042 10 14.0042Z" fill="#D9D9D9"/>
</svg>
