<svg width="16" height="20" viewBox="0 0 16 20" fill="none" xmlns="http://www.w3.org/2000/svg">
<path fill-rule="evenodd" clip-rule="evenodd" d="M0.5 7.50024C0.5 3.35811 3.85786 0.000244141 8 0.000244141C12.1421 0.000244141 15.5 3.35811 15.5 7.50024C15.5 10.0681 14.1005 12.1566 12.6502 13.6393C11.1897 15.1325 9.56229 16.132 8.84548 16.5368C8.31762 16.8349 7.68238 16.8349 7.15452 16.5368C6.43771 16.132 4.81027 15.1325 3.34978 13.6393C1.89953 12.1566 0.5 10.0681 0.5 7.50024ZM10 7.50024C10 8.60481 9.10457 9.50024 8 9.50024C6.89543 9.50024 6 8.60481 6 7.50024C6 6.39567 6.89543 5.50024 8 5.50024C9.10457 5.50024 10 6.39567 10 7.50024Z" fill="#D9D9D9"/>
<path d="M3.27991 16.5601C3.81012 16.4055 4.11462 15.8504 3.96003 15.3202C3.80543 14.79 3.25029 14.4855 2.72009 14.6401C2.05202 14.8349 1.43918 15.0849 0.970679 15.4061C0.534542 15.705 0 16.2262 0 16.9998C0 17.7835 0.547808 18.308 0.990335 18.607C1.46776 18.9295 2.09289 19.1805 2.77553 19.3756C4.15442 19.7695 6.00123 19.9998 8 19.9998C9.99877 19.9998 11.8456 19.7695 13.2245 19.3756C13.9071 19.1805 14.5322 18.9295 15.0097 18.607C15.4522 18.308 16 17.7835 16 16.9998C16 16.2262 15.4655 15.705 15.0293 15.4061C14.5608 15.0849 13.948 14.8349 13.2799 14.6401C12.7497 14.4855 12.1946 14.79 12.04 15.3202C11.8854 15.8504 12.1899 16.4055 12.7201 16.5601C13.2209 16.7061 13.5807 16.861 13.8113 16.9998C13.5726 17.1435 13.1975 17.3032 12.675 17.4525C11.5204 17.7824 9.86722 17.9998 8 17.9998C6.13278 17.9998 4.47958 17.7824 3.32497 17.4525C2.80251 17.3032 2.42735 17.1435 2.18866 16.9998C2.41926 16.861 2.77914 16.7061 3.27991 16.5601Z" fill="#D9D9D9"/>
</svg>
